<mxfile host="app.diagrams.net" modified="2022-12-11T00:00:03.039Z" agent="5.0 (X11)" version="20.6.2" etag="-E4OEdJBpIlGPL3av2zO" type="github">
  <diagram id="BkMAqzbQW5LJQ41ERv73" name="Page-1">
    <mxGraphModel dx="1350" dy="793" grid="1" gridSize="10" guides="1" tooltips="1" connect="1" arrows="1" fold="1" page="1" pageScale="1" pageWidth="850" pageHeight="1100" math="0" shadow="0">
      <root>
        <mxCell id="0" />
        <mxCell id="1" parent="0" />
        <mxCell id="KN8mh6ln3yBK90d3jSYJ-3" value="" style="edgeStyle=orthogonalEdgeStyle;rounded=0;orthogonalLoop=1;jettySize=auto;html=1;" edge="1" parent="1" source="KN8mh6ln3yBK90d3jSYJ-1" target="KN8mh6ln3yBK90d3jSYJ-2">
          <mxGeometry relative="1" as="geometry" />
        </mxCell>
        <mxCell id="KN8mh6ln3yBK90d3jSYJ-1" value="just inputs number number of process" style="rounded=0;whiteSpace=wrap;html=1;" vertex="1" parent="1">
          <mxGeometry x="340" y="20" width="120" height="60" as="geometry" />
        </mxCell>
        <mxCell id="KN8mh6ln3yBK90d3jSYJ-5" value="" style="edgeStyle=orthogonalEdgeStyle;rounded=0;orthogonalLoop=1;jettySize=auto;html=1;" edge="1" parent="1" source="KN8mh6ln3yBK90d3jSYJ-2" target="KN8mh6ln3yBK90d3jSYJ-4">
          <mxGeometry relative="1" as="geometry" />
        </mxCell>
        <mxCell id="KN8mh6ln3yBK90d3jSYJ-2" value="Enter template" style="whiteSpace=wrap;html=1;rounded=0;" vertex="1" parent="1">
          <mxGeometry x="340" y="110" width="120" height="60" as="geometry" />
        </mxCell>
        <mxCell id="KN8mh6ln3yBK90d3jSYJ-4" value="create the new process vector " style="whiteSpace=wrap;html=1;rounded=0;" vertex="1" parent="1">
          <mxGeometry x="340" y="210" width="120" height="60" as="geometry" />
        </mxCell>
      </root>
    </mxGraphModel>
  </diagram>
</mxfile>
